<svg id="Layer_1" data-name="Layer 1" xmlns="http://www.w3.org/2000/svg" viewBox="0 0 512 512"><title>fff</title><path d="M408.5,145.5h35l-126,76h-26l-11-19,126-61C407.17,142.83,407.83,144.17,408.5,145.5Z" style="fill:#2b5899"/><path d="M24.5,252.5c5-14.05,17.39-21.86,24.5-25.5C210.18,145,329.94,88.4,355.5,81.5c5.56-1.5,19.57-5.27,33,1a42.31,42.31,0,0,1,19,18l18,38-134,66,40,88,135-65q11,22,22,44a38.54,38.54,0,0,1-14,49l-306,145c-2.3,1.52-18.08,11.56-38,6-19.41-5.42-27.73-21.45-29-24-43.88-86.25-72.86-151.19-77-168C23.13,273.93,20.54,263.7,24.5,252.5Z" style="fill:#689ff2"/><path d="M94,431a122.89,122.89,0,0,0,29,8,130.48,130.48,0,0,0,27,1,150,150,0,0,0,30-5L492,289a36.8,36.8,0,0,1-2,13,37.29,37.29,0,0,1-11,16L173,463c-2.71,2-19.38,13.82-40,9-15.7-3.67-24.7-14.88-28-19A59.07,59.07,0,0,1,94,431Z" style="fill:#4975ca"/><polygon points="307.5 208.5 338.5 275.5 475.5 211.5 443.5 145.5 307.5 208.5" style="fill:#4975ca"/><rect x="344.09" y="206.56" width="35.54" height="35.54" rx="11.8" ry="11.8" transform="translate(-60.9 173.95) rotate(-25)" style="fill:#fff"/><path d="M65,128l21,70L58,211q-6.49-25-13-50a28.42,28.42,0,0,1,2-18C52.31,131.83,63.24,128.51,65,128Z" style="fill:#4975ca"/><path d="M116,85q5,46,10,92L99,192l-9-83c.44-2.33,2.59-12.45,12-19A29,29,0,0,1,116,85Z" style="fill:#4975ca"/><path d="M169,45l9,108-36,17-6-99a38.17,38.17,0,0,1,33-26Z" style="fill:#4975ca"/><path d="M206,45q4,45.5,8,91L352,71a54.25,54.25,0,0,0-28-32Z" style="fill:#4975ca"/><path d="M125.75,295.64q2.81-19.87,5.66-39.74l.12-.82a15.19,15.19,0,0,1,6.81-8.59c.26-.15.25-.12,3-1.38l2.67-1.25,23.65-11c.83-.39,2.51-1.19,4.79-2.24,3.79-1.74,5.68-2.61,6.55-3a26.93,26.93,0,0,1,14.89-.94,28.44,28.44,0,0,1,9.83,4.47,37.9,37.9,0,0,1,10.54,10.23,34.69,34.69,0,0,1,6.29,15.81,35.33,35.33,0,0,1-1.42,14.73,43.18,43.18,0,0,1-7.57,14.71c-.94,1.19-8.43,9-8.43,9L265,333.56,242.61,344q-30.72-18.72-61.46-37.42l-4.33,30.15,13.62-6.35,20.14,12.24L173.25,360q-1.12,8.69-2.27,17.37l-23,10.71q5.23-35.67,10.48-71.33l-16.29,7.6Q140.1,338.54,138,352.7l-23,10.72c1.74-11.88,3-19.93,3.82-25.24,1.61-10.23,2.25-14.84,2.65-17.56.36-2.47.59-4,.64-4.54a8.56,8.56,0,0,1,.7-2.73,7.72,7.72,0,0,1,1.16-1.71h0a17.08,17.08,0,0,1,5.49-4h0l1.36-.64,6.81-3.17,7.21-3.36,15.57-7.26,21.8-10.17.58-.27s1.67-.79,3.22-1.74c3.37-2.06,10.26-6.25,12.45-13.91a15.49,15.49,0,0,0-.44-11c-.26-.56-2.82-5.91-8.56-7.54-4.75-1.36-9.23.52-11.11,1.3-.68.28-2.78,1.22-4.72,2.11l-3.17,1.48-6.81,3.17-12.14,5.67q-.84,4.38-1.57,9c-.74,4.77-1.34,9.39-1.8,13.83Z" style="fill:#fff"/></svg>